<svg width="310" height="276" viewBox="0 0 310 276" fill="none" xmlns="http://www.w3.org/2000/svg">
<rect width="310" height="276" rx="20" fill="#393939"/>
<rect x="70" y="53" width="169" height="169" rx="25" fill="#393939" stroke="#76A836" stroke-width="10"/>
<path d="M120 177.129C120 177.129 126.286 183 136.107 183C145.536 183 153 170 153 170" stroke="white" stroke-width="10" stroke-linecap="round"/>
<path d="M191 177.581C191 177.581 184.714 183 174.893 183C165.464 183 158 171 158 171" stroke="white" stroke-width="10" stroke-linecap="round"/>
<circle cx="108.34" cy="126.37" r="26.235" fill="#232325" stroke="white" stroke-width="7"/>
<circle cx="99.0414" cy="117.071" r="10.9589" fill="white"/>
<circle cx="200.56" cy="126.37" r="26.235" fill="#232325" stroke="white" stroke-width="7"/>
<circle cx="191.262" cy="117.071" r="10.9589" fill="white"/>
<circle cx="3.18" cy="3.18" r="3.18" transform="matrix(-1 0 0 1 98.0054 156.58)" fill="white" fill-opacity="0.15"/>
<path d="M74.3419 155.916L70.8952 156.524L72.1117 163.418L75.5584 162.809L74.3419 155.916ZM92.4336 162.531C94.3152 162.974 96.1994 161.807 96.6422 159.926C97.0849 158.044 95.9184 156.16 94.0368 155.717L92.4336 162.531ZM75.5584 162.809C82.208 161.636 86.3956 161.11 92.4336 162.531L94.0368 155.717C86.5598 153.958 81.2074 154.704 74.3419 155.916L75.5584 162.809Z" fill="white"/>
<path d="M89.2601 169.3C89.2601 171.056 90.6839 172.48 92.4401 172.48C94.1964 172.48 95.6201 171.056 95.6201 169.3C95.6201 167.544 94.0301 165.722 92.0426 165.722C90.2864 165.722 89.2601 167.544 89.2601 169.3Z" fill="white" fill-opacity="0.15"/>
<path d="M86.8753 178.442C86.8753 180.418 88.477 182.02 90.4528 182.02C92.4286 182.02 93.6328 180.43 93.6328 178.442C93.6328 176.455 92.4286 175.262 90.4528 175.262C88.477 175.262 86.8753 176.467 86.8753 178.442Z" fill="white" fill-opacity="0.15"/>
<path d="M74.3419 166.246L70.8952 166.854L72.1117 173.748L75.5584 173.139L74.3419 166.246ZM90.7645 168.505L90.7645 172.005H90.7645V168.505ZM90.8502 172.005C92.7832 172.005 94.3502 170.438 94.3502 168.505C94.3502 166.572 92.7832 165.005 90.8502 165.005V172.005ZM75.5584 173.139C82.0037 172.002 83.7744 172.005 90.7645 172.005L90.7645 165.005C83.584 165.005 81.3576 165.008 74.3419 166.246L75.5584 173.139ZM90.7645 172.005H90.8502V165.005H90.7645V172.005Z" fill="white"/>
<path d="M74.5161 175.764L71.0431 176.199L71.9113 183.145L75.3843 182.71L74.5161 175.764ZM88.6593 181.54C90.5894 181.432 92.067 179.781 91.9598 177.851C91.8526 175.921 90.2011 174.443 88.2711 174.55L88.6593 181.54ZM75.3843 182.71C81.656 181.926 81.5754 181.933 88.6593 181.54L88.2711 174.55C81.045 174.952 80.9644 174.958 74.5161 175.764L75.3843 182.71Z" fill="white"/>
<circle cx="216.46" cy="159.76" r="3.18" fill="white" fill-opacity="0.17"/>
<path d="M222.025 169.3C222.025 171.056 220.601 172.48 218.845 172.48C217.088 172.48 215.665 171.056 215.665 169.3C215.665 167.544 217.255 165.722 219.242 165.722C220.998 165.722 222.025 167.544 222.025 169.3Z" fill="white" fill-opacity="0.17"/>
<path d="M224.41 178.442C224.41 180.418 222.808 182.02 220.832 182.02C218.857 182.02 217.652 180.43 217.652 178.442C217.652 176.455 218.857 175.262 220.832 175.262C222.808 175.262 224.41 176.467 224.41 178.442Z" fill="white" fill-opacity="0.17"/>
<path d="M236.148 155.911L239.595 156.519L238.379 163.413L234.932 162.804L236.148 155.911ZM218.057 162.526C216.175 162.969 214.291 161.802 213.848 159.921C213.405 158.039 214.572 156.155 216.453 155.712L218.057 162.526ZM234.932 162.804C228.282 161.631 224.095 161.105 218.057 162.526L216.453 155.712C223.93 153.953 229.283 154.699 236.148 155.911L234.932 162.804Z" fill="white"/>
<path d="M236.148 166.241L239.595 166.849L238.379 173.743L234.932 173.134L236.148 166.241ZM219.726 168.5L219.726 172H219.726V168.5ZM219.64 172C217.707 172 216.14 170.433 216.14 168.5C216.14 166.567 217.707 165 219.64 165V172ZM234.932 173.134C228.487 171.997 226.716 172 219.726 172L219.726 165C226.906 165 229.133 165.003 236.148 166.241L234.932 173.134ZM219.726 172H219.64V165H219.726V172Z" fill="white"/>
<path d="M235.974 175.76L239.447 176.194L238.579 183.14L235.106 182.706L235.974 175.76ZM221.831 181.535C219.901 181.427 218.423 179.776 218.53 177.846C218.638 175.916 220.289 174.438 222.219 174.545L221.831 181.535ZM235.106 182.706C228.834 181.922 228.915 181.928 221.831 181.535L222.219 174.545C229.445 174.947 229.526 174.954 235.974 175.76L235.106 182.706Z" fill="white"/>
<path d="M151.668 168.903C152.709 169.944 153.533 170.064 155.245 170.095L155.28 170.096C156.542 170.119 157.471 170.135 158.425 169.3C161.605 166.518 165.183 162.543 165.978 161.748C166.773 160.953 168.76 159.363 167.568 155.785C166.286 151.939 163.687 151.81 162.003 151.81H147.295C146.5 151.81 144.62 152.318 143.32 154.593C141.73 157.375 142.764 159.363 143.718 160.555C145.308 162.543 149.68 166.915 151.668 168.903Z" stroke="white" stroke-width="5" stroke-linecap="round"/>
<path d="M153.655 157.375C153.655 160.449 151.163 162.94 148.09 162.94C145.016 162.94 142.525 160.449 142.525 157.375C142.525 154.302 145.016 151.81 148.09 151.81C151.163 151.81 153.655 154.302 153.655 157.375Z" fill="#D9D9D9"/>
<path d="M167.965 157.375C167.965 160.449 165.473 162.94 162.4 162.94C159.326 162.94 156.835 160.449 156.835 157.375C156.835 154.302 159.326 151.81 162.4 151.81C165.473 151.81 167.965 154.302 167.965 157.375Z" fill="#D9D9D9"/>
<path d="M160.81 164.53C160.81 167.604 158.318 170.095 155.245 170.095C152.171 170.095 149.68 167.604 149.68 164.53C149.68 161.457 152.171 158.965 155.245 158.965C158.318 158.965 160.81 161.457 160.81 164.53Z" fill="#D9D9D9"/>
<path d="M147.295 151.81H162.4V162.94H147.295V151.81Z" fill="#D9D9D9"/>
<path d="M151.291 160.647L158.566 153.372L166.379 161.184L159.103 168.46L151.291 160.647Z" fill="#D9D9D9"/>
<path d="M143.824 160.967L150.596 154.195L158.408 162.008L151.636 168.78L143.824 160.967Z" fill="#D9D9D9"/>
<path d="M153.854 159.034C153.854 161.707 151.674 163.873 148.985 163.873C146.295 163.873 144.115 161.707 144.115 159.034C144.115 156.362 146.295 154.195 148.985 154.195C151.674 154.195 153.854 156.362 153.854 159.034Z" fill="#D0D0D0"/>
<path d="M166.375 159.034C166.375 161.707 164.195 163.873 161.506 163.873C158.817 163.873 156.636 161.707 156.636 159.034C156.636 156.362 158.817 154.195 161.506 154.195C164.195 154.195 166.375 156.362 166.375 159.034Z" fill="#D0D0D0"/>
<path d="M160.115 165.256C160.115 167.929 157.935 170.095 155.245 170.095C152.556 170.095 150.376 167.929 150.376 165.256C150.376 162.583 152.556 160.417 155.245 160.417C157.935 160.417 160.115 162.583 160.115 165.256Z" fill="#D0D0D0"/>
<path d="M148.289 154.195H161.506V163.873H148.289V154.195Z" fill="#D0D0D0"/>
<path d="M151.785 161.88L158.152 155.553L164.988 162.347L158.621 168.673L151.785 161.88Z" fill="#D0D0D0"/>
<path d="M145.252 162.158L151.177 156.269L158.013 163.063L152.088 168.952L145.252 162.158Z" fill="#D0D0D0"/>
<path d="M154.053 160.693C154.053 162.965 152.184 164.807 149.879 164.807C147.574 164.807 145.705 162.965 145.705 160.693C145.705 158.422 147.574 156.58 149.879 156.58C152.184 156.58 154.053 158.422 154.053 160.693Z" fill="#C6C6C6"/>
<path d="M164.785 160.693C164.785 162.965 162.916 164.807 160.611 164.807C158.306 164.807 156.438 162.965 156.438 160.693C156.438 158.422 158.306 156.58 160.611 156.58C162.916 156.58 164.785 158.422 164.785 160.693Z" fill="#C6C6C6"/>
<path d="M159.419 165.982C159.419 168.254 157.55 170.095 155.245 170.095C152.94 170.095 151.071 168.254 151.071 165.982C151.071 163.71 152.94 161.869 155.245 161.869C157.55 161.869 159.419 163.71 159.419 165.982Z" fill="#C6C6C6"/>
<path d="M149.283 156.58H160.611V164.807H149.283V156.58Z" fill="#C6C6C6"/>
<path d="M152.279 163.112L157.736 157.734L163.596 163.509L158.139 168.887L152.279 163.112Z" fill="#C6C6C6"/>
<path d="M146.679 163.348L151.758 158.343L157.618 164.118L152.539 169.123L146.679 163.348Z" fill="#C6C6C6"/>
<rect x="74.9502" y="130.345" width="6.3282" height="3.975" fill="#76A836"/>
<rect x="226.795" y="130.345" width="7.155" height="3.975" fill="#76A836"/>
<path d="M144.115 145.45C143.237 145.45 142.525 144.738 142.525 143.86C142.525 142.982 143.237 142.27 144.115 142.27L165.58 142.27C166.459 142.27 167.17 142.982 167.17 143.86C167.17 144.738 166.459 145.45 165.58 145.45L144.115 145.45Z" fill="#76A836"/>
<rect x="82.5801" y="119.69" width="60.265" height="30.055" rx="4" stroke="#76A836" stroke-width="7"/>
<rect x="166.85" y="119.69" width="58.675" height="30.055" rx="4" stroke="#76A836" stroke-width="7"/>
<rect x="234" y="155" width="8" height="33" fill="#76A836"/>
<rect x="67" y="154" width="8" height="33" fill="#76A836"/>
</svg>
