<svg width="487" height="433" viewBox="0 0 487 433" fill="none" xmlns="http://www.w3.org/2000/svg">
<rect width="487" height="433" rx="20" fill="#393939"/>
<path d="M220.392 349V286.408H241.8C246.152 286.408 250.056 286.888 253.512 287.848C256.968 288.744 259.72 290.312 261.768 292.552C263.816 294.792 264.84 297.928 264.84 301.96C264.84 304.712 264.104 307.432 262.632 310.12C261.224 312.744 259.24 314.536 256.68 315.496V315.88C259.88 316.712 262.536 318.344 264.648 320.776C266.824 323.144 267.912 326.408 267.912 330.568C267.912 334.856 266.824 338.344 264.648 341.032C262.472 343.72 259.56 345.736 255.912 347.08C252.264 348.36 248.168 349 243.624 349H220.392ZM234.504 311.464H241.128C244.584 311.464 247.08 310.792 248.616 309.448C250.216 308.104 251.016 306.312 251.016 304.072C251.016 301.64 250.216 299.912 248.616 298.888C247.016 297.864 244.552 297.352 241.224 297.352H234.504V311.464ZM234.504 338.056H242.472C250.216 338.056 254.088 335.24 254.088 329.608C254.088 326.856 253.128 324.904 251.208 323.752C249.288 322.536 246.376 321.928 242.472 321.928H234.504V338.056ZM277.365 349V301.384H288.885L289.845 309.736H290.229C291.957 306.536 294.037 304.168 296.469 302.632C298.901 301.032 301.333 300.232 303.765 300.232C305.109 300.232 306.229 300.328 307.125 300.52C308.021 300.648 308.789 300.872 309.429 301.192L307.125 313.384C306.293 313.128 305.461 312.936 304.629 312.808C303.861 312.68 302.965 312.616 301.941 312.616C300.149 312.616 298.261 313.288 296.277 314.632C294.357 315.912 292.757 318.152 291.477 321.352V349H277.365Z" fill="#FEFAE0"/>
<rect x="129" y="277" width="80" height="80" rx="10" fill="#76A836"/>
<path d="M137.392 349V286.408H151.504V337.096H176.272V349H137.392Z" fill="#FEFAE0"/>
<rect x="186" y="317" width="14" height="32" fill="#FEFAE0"/>
<circle cx="193" cy="307" r="8" fill="#FEFAE0"/>
<path d="M344 308.5C348.646 310.821 350.536 314.697 351.5 321" stroke="#0B5793" stroke-width="2.5" stroke-linecap="round"/>
<circle cx="336" cy="326" r="22" fill="#FEFAE0"/>
<rect x="341.25" y="336.567" width="3.72566" height="6.97005" rx="1" transform="rotate(-36.8383 341.25 336.567)" fill="#393939"/>
<circle cx="336" cy="326" r="12" fill="#76A836"/>
<path d="M338.5 319C341.69 320.528 342.782 321.948 343 326" stroke="white" stroke-width="2" stroke-linecap="round"/>
<g clip-path="url(#clip0_60_70)">
<path d="M193.29 293.919C193.199 293.89 193.1 293.875 193 293.875C192.899 293.875 192.8 293.89 192.709 293.919L182.397 297.2C182.276 297.239 182.173 297.301 182.103 297.378C182.032 297.456 181.997 297.546 182 297.638C182.004 297.729 182.047 297.818 182.123 297.893C182.2 297.968 182.307 298.026 182.431 298.06L192.744 300.872C192.908 300.917 193.091 300.917 193.255 300.872L201.25 298.693L202.725 298.29C202.172 297.893 201.758 298.386 201.5 298.562C201.242 298.738 201.5 298.314 201.5 298.562L202.532 298.338C202.532 298.089 202.492 298.466 202.234 298.29C201.976 298.114 202.897 298.338 202.532 298.338L203.568 298.06C203.692 298.026 203.799 297.968 203.876 297.893C203.952 297.818 203.995 297.729 203.999 297.638C204.002 297.546 203.967 297.456 203.896 297.378C203.826 297.301 203.724 297.239 203.602 297.2L193.29 293.919Z" fill="#393939"/>
<path d="M187.742 300.467C187.654 300.445 187.559 300.435 187.465 300.438C187.37 300.441 187.278 300.458 187.193 300.487C187.109 300.515 187.034 300.556 186.973 300.605C186.912 300.655 186.867 300.712 186.84 300.774L186.153 302.368C186.105 302.48 186.119 302.6 186.194 302.705C186.269 302.81 186.398 302.892 186.557 302.935L192.745 304.622C192.909 304.667 193.092 304.667 193.256 304.622L199.444 302.935C199.602 302.892 199.732 302.81 199.806 302.705C199.881 302.6 199.896 302.48 199.848 302.368L199.16 300.774C199.134 300.712 199.089 300.655 199.028 300.605C198.967 300.556 198.892 300.515 198.807 300.487C198.723 300.458 198.63 300.441 198.536 300.438C198.441 300.435 198.347 300.445 198.258 300.467L193 301.812L187.742 300.467Z" fill="#393939"/>
</g>
<rect x="158" y="57" width="169" height="169" rx="25" fill="#393939" stroke="#76A836" stroke-width="10"/>
<path d="M208 181.129C208 181.129 214.286 187 224.107 187C233.536 187 241 174 241 174" stroke="white" stroke-width="10" stroke-linecap="round"/>
<path d="M279 181.581C279 181.581 272.714 187 262.893 187C253.464 187 246 175 246 175" stroke="white" stroke-width="10" stroke-linecap="round"/>
<circle cx="196.34" cy="130.37" r="26.235" fill="#232325" stroke="white" stroke-width="7"/>
<circle cx="187.041" cy="121.071" r="10.9589" fill="white"/>
<circle cx="288.56" cy="130.37" r="26.235" fill="#232325" stroke="white" stroke-width="7"/>
<circle cx="279.262" cy="121.071" r="10.9589" fill="white"/>
<circle cx="3.18" cy="3.18" r="3.18" transform="matrix(-1 0 0 1 186.005 160.58)" fill="white" fill-opacity="0.15"/>
<path d="M162.342 159.916L158.895 160.524L160.112 167.418L163.558 166.809L162.342 159.916ZM180.434 166.531C182.315 166.974 184.199 165.807 184.642 163.926C185.085 162.044 183.918 160.16 182.037 159.717L180.434 166.531ZM163.558 166.809C170.208 165.636 174.396 165.11 180.434 166.531L182.037 159.717C174.56 157.958 169.207 158.704 162.342 159.916L163.558 166.809Z" fill="white"/>
<path d="M177.26 173.3C177.26 175.056 178.684 176.48 180.44 176.48C182.196 176.48 183.62 175.056 183.62 173.3C183.62 171.544 182.03 169.722 180.043 169.722C178.286 169.722 177.26 171.544 177.26 173.3Z" fill="white" fill-opacity="0.15"/>
<path d="M174.875 182.442C174.875 184.418 176.477 186.02 178.453 186.02C180.429 186.02 181.633 184.43 181.633 182.442C181.633 180.455 180.429 179.262 178.453 179.262C176.477 179.262 174.875 180.467 174.875 182.442Z" fill="white" fill-opacity="0.15"/>
<path d="M162.342 170.246L158.895 170.854L160.112 177.748L163.558 177.139L162.342 170.246ZM178.764 172.505L178.764 176.005H178.764V172.505ZM178.85 176.005C180.783 176.005 182.35 174.438 182.35 172.505C182.35 170.572 180.783 169.005 178.85 169.005V176.005ZM163.558 177.139C170.004 176.002 171.774 176.005 178.764 176.005L178.764 169.005C171.584 169.005 169.358 169.008 162.342 170.246L163.558 177.139ZM178.764 176.005H178.85V169.005H178.764V176.005Z" fill="white"/>
<path d="M162.516 179.764L159.043 180.199L159.911 187.145L163.384 186.71L162.516 179.764ZM176.659 185.54C178.589 185.432 180.067 183.781 179.96 181.851C179.853 179.921 178.201 178.443 176.271 178.55L176.659 185.54ZM163.384 186.71C169.656 185.926 169.575 185.933 176.659 185.54L176.271 178.55C169.045 178.952 168.964 178.958 162.516 179.764L163.384 186.71Z" fill="white"/>
<circle cx="304.46" cy="163.76" r="3.18" fill="white" fill-opacity="0.17"/>
<path d="M310.025 173.3C310.025 175.056 308.601 176.48 306.845 176.48C305.088 176.48 303.665 175.056 303.665 173.3C303.665 171.544 305.255 169.722 307.242 169.722C308.998 169.722 310.025 171.544 310.025 173.3Z" fill="white" fill-opacity="0.17"/>
<path d="M312.41 182.442C312.41 184.418 310.808 186.02 308.832 186.02C306.857 186.02 305.652 184.43 305.652 182.442C305.652 180.455 306.857 179.262 308.832 179.262C310.808 179.262 312.41 180.467 312.41 182.442Z" fill="white" fill-opacity="0.17"/>
<path d="M324.148 159.911L327.595 160.519L326.379 167.413L322.932 166.804L324.148 159.911ZM306.057 166.526C304.175 166.969 302.291 165.802 301.848 163.921C301.405 162.039 302.572 160.155 304.453 159.712L306.057 166.526ZM322.932 166.804C316.282 165.631 312.095 165.105 306.057 166.526L304.453 159.712C311.93 157.953 317.283 158.699 324.148 159.911L322.932 166.804Z" fill="white"/>
<path d="M324.148 170.241L327.595 170.849L326.379 177.743L322.932 177.134L324.148 170.241ZM307.726 172.5L307.726 176H307.726V172.5ZM307.64 176C305.707 176 304.14 174.433 304.14 172.5C304.14 170.567 305.707 169 307.64 169V176ZM322.932 177.134C316.487 175.997 314.716 176 307.726 176L307.726 169C314.906 169 317.133 169.003 324.148 170.241L322.932 177.134ZM307.726 176H307.64V169H307.726V176Z" fill="white"/>
<path d="M323.974 179.76L327.447 180.194L326.579 187.14L323.106 186.706L323.974 179.76ZM309.831 185.535C307.901 185.427 306.423 183.776 306.53 181.846C306.638 179.916 308.289 178.438 310.219 178.545L309.831 185.535ZM323.106 186.706C316.834 185.922 316.915 185.928 309.831 185.535L310.219 178.545C317.445 178.947 317.526 178.954 323.974 179.76L323.106 186.706Z" fill="white"/>
<path d="M239.668 172.903C240.709 173.944 241.533 174.064 243.245 174.095L243.28 174.096C244.542 174.119 245.471 174.135 246.425 173.3C249.605 170.518 253.183 166.543 253.978 165.748C254.773 164.953 256.76 163.363 255.568 159.785C254.286 155.939 251.687 155.81 250.003 155.81H235.295C234.5 155.81 232.62 156.318 231.32 158.593C229.73 161.375 230.764 163.363 231.718 164.555C233.308 166.543 237.68 170.915 239.668 172.903Z" stroke="white" stroke-width="5" stroke-linecap="round"/>
<path d="M241.655 161.375C241.655 164.449 239.163 166.94 236.09 166.94C233.016 166.94 230.525 164.449 230.525 161.375C230.525 158.302 233.016 155.81 236.09 155.81C239.163 155.81 241.655 158.302 241.655 161.375Z" fill="#D9D9D9"/>
<path d="M255.965 161.375C255.965 164.449 253.473 166.94 250.4 166.94C247.326 166.94 244.835 164.449 244.835 161.375C244.835 158.302 247.326 155.81 250.4 155.81C253.473 155.81 255.965 158.302 255.965 161.375Z" fill="#D9D9D9"/>
<path d="M248.81 168.53C248.81 171.604 246.318 174.095 243.245 174.095C240.171 174.095 237.68 171.604 237.68 168.53C237.68 165.457 240.171 162.965 243.245 162.965C246.318 162.965 248.81 165.457 248.81 168.53Z" fill="#D9D9D9"/>
<path d="M235.295 155.81H250.4V166.94H235.295V155.81Z" fill="#D9D9D9"/>
<path d="M239.291 164.647L246.566 157.372L254.379 165.184L247.103 172.46L239.291 164.647Z" fill="#D9D9D9"/>
<path d="M231.824 164.967L238.596 158.195L246.408 166.008L239.636 172.78L231.824 164.967Z" fill="#D9D9D9"/>
<path d="M241.854 163.034C241.854 165.707 239.674 167.873 236.985 167.873C234.295 167.873 232.115 165.707 232.115 163.034C232.115 160.362 234.295 158.195 236.985 158.195C239.674 158.195 241.854 160.362 241.854 163.034Z" fill="#D0D0D0"/>
<path d="M254.375 163.034C254.375 165.707 252.195 167.873 249.506 167.873C246.817 167.873 244.636 165.707 244.636 163.034C244.636 160.362 246.817 158.195 249.506 158.195C252.195 158.195 254.375 160.362 254.375 163.034Z" fill="#D0D0D0"/>
<path d="M248.115 169.256C248.115 171.929 245.935 174.095 243.245 174.095C240.556 174.095 238.376 171.929 238.376 169.256C238.376 166.583 240.556 164.417 243.245 164.417C245.935 164.417 248.115 166.583 248.115 169.256Z" fill="#D0D0D0"/>
<path d="M236.289 158.195H249.506V167.873H236.289V158.195Z" fill="#D0D0D0"/>
<path d="M239.785 165.88L246.152 159.553L252.988 166.347L246.621 172.673L239.785 165.88Z" fill="#D0D0D0"/>
<path d="M233.252 166.158L239.177 160.269L246.013 167.063L240.088 172.952L233.252 166.158Z" fill="#D0D0D0"/>
<path d="M242.053 164.693C242.053 166.965 240.184 168.807 237.879 168.807C235.574 168.807 233.705 166.965 233.705 164.693C233.705 162.422 235.574 160.58 237.879 160.58C240.184 160.58 242.053 162.422 242.053 164.693Z" fill="#C6C6C6"/>
<path d="M252.785 164.693C252.785 166.965 250.916 168.807 248.611 168.807C246.306 168.807 244.438 166.965 244.438 164.693C244.438 162.422 246.306 160.58 248.611 160.58C250.916 160.58 252.785 162.422 252.785 164.693Z" fill="#C6C6C6"/>
<path d="M247.419 169.982C247.419 172.254 245.55 174.095 243.245 174.095C240.94 174.095 239.071 172.254 239.071 169.982C239.071 167.71 240.94 165.869 243.245 165.869C245.55 165.869 247.419 167.71 247.419 169.982Z" fill="#C6C6C6"/>
<path d="M237.283 160.58H248.611V168.807H237.283V160.58Z" fill="#C6C6C6"/>
<path d="M240.279 167.112L245.736 161.734L251.596 167.509L246.139 172.887L240.279 167.112Z" fill="#C6C6C6"/>
<path d="M234.679 167.348L239.758 162.343L245.618 168.118L240.539 173.123L234.679 167.348Z" fill="#C6C6C6"/>
<rect x="162.95" y="134.345" width="6.3282" height="3.975" fill="#76A836"/>
<rect x="314.795" y="134.345" width="7.155" height="3.975" fill="#76A836"/>
<path d="M232.115 149.45C231.237 149.45 230.525 148.738 230.525 147.86C230.525 146.982 231.237 146.27 232.115 146.27L253.58 146.27C254.459 146.27 255.17 146.982 255.17 147.86C255.17 148.738 254.459 149.45 253.58 149.45L232.115 149.45Z" fill="#76A836"/>
<rect x="170.58" y="123.69" width="60.265" height="30.055" rx="4" stroke="#76A836" stroke-width="7"/>
<rect x="254.85" y="123.69" width="58.675" height="30.055" rx="4" stroke="#76A836" stroke-width="7"/>
<rect x="322" y="159" width="8" height="33" fill="#76A836"/>
<rect x="155" y="158" width="8" height="33" fill="#76A836"/>
<defs>
<clipPath id="clip0_60_70">
<rect width="22" height="15" fill="white" transform="translate(182 292)"/>
</clipPath>
</defs>
</svg>
