<svg width="115" height="61" viewBox="0 0 115 61" fill="none" xmlns="http://www.w3.org/2000/svg">
<path d="M44.696 48V16.704H55.4C57.576 16.704 59.528 16.944 61.256 17.424C62.984 17.872 64.36 18.656 65.384 19.776C66.408 20.896 66.92 22.464 66.92 24.48C66.92 25.856 66.552 27.216 65.816 28.56C65.112 29.872 64.12 30.768 62.84 31.248V31.44C64.44 31.856 65.768 32.672 66.824 33.888C67.912 35.072 68.456 36.704 68.456 38.784C68.456 40.928 67.912 42.672 66.824 44.016C65.736 45.36 64.28 46.368 62.456 47.04C60.632 47.68 58.584 48 56.312 48H44.696ZM51.752 29.232H55.064C56.792 29.232 58.04 28.896 58.808 28.224C59.608 27.552 60.008 26.656 60.008 25.536C60.008 24.32 59.608 23.456 58.808 22.944C58.008 22.432 56.776 22.176 55.112 22.176H51.752V29.232ZM51.752 42.528H55.736C59.608 42.528 61.544 41.12 61.544 38.304C61.544 36.928 61.064 35.952 60.104 35.376C59.144 34.768 57.688 34.464 55.736 34.464H51.752V42.528ZM73.1825 48V24.192H78.9425L79.4225 28.368H79.6145C80.4785 26.768 81.5185 25.584 82.7345 24.816C83.9505 24.016 85.1665 23.616 86.3825 23.616C87.0545 23.616 87.6145 23.664 88.0625 23.76C88.5105 23.824 88.8945 23.936 89.2145 24.096L88.0625 30.192C87.6465 30.064 87.2305 29.968 86.8145 29.904C86.4305 29.84 85.9825 29.808 85.4705 29.808C84.5745 29.808 83.6305 30.144 82.6385 30.816C81.6785 31.456 80.8785 32.576 80.2385 34.176V48H73.1825Z" fill="#FEFAE0"/>
<rect y="10" width="41" height="41" rx="5" fill="#76A836"/>
<path d="M4.696 47V15.704H11.752V41.048H24.136V47H4.696Z" fill="#FEFAE0"/>
<rect x="29" y="31" width="6" height="16" fill="#FEFAE0"/>
<circle cx="32" cy="27" r="3" fill="#FEFAE0"/>
<path d="M108 27C109.858 28.1139 110.614 29.9746 111 33" stroke="#0B5793" stroke-width="2.5" stroke-linecap="round"/>
<circle cx="103" cy="36" r="12" fill="#FEFAE0"/>
<rect x="105.728" y="41.0366" width="2.03218" height="3.82603" transform="rotate(-36.8383 105.728 41.0366)" fill="#232325"/>
<circle cx="103" cy="36" r="6" fill="#76A836"/>
<path d="M104 32C106.126 32.8732 106.855 33.6846 107 36" stroke="white" stroke-linecap="round"/>
<g clip-path="url(#clip0_21_3)">
<path d="M32.1053 21.7675C32.0722 21.756 32.0362 21.75 31.9998 21.75C31.9633 21.75 31.9273 21.756 31.8943 21.7675L28.1443 23.08C28.1001 23.0955 28.063 23.1203 28.0373 23.1514C28.0117 23.1825 27.9988 23.2185 28.0001 23.255C28.0014 23.2916 28.017 23.327 28.0448 23.357C28.0727 23.387 28.1116 23.4103 28.1568 23.4239L31.9068 24.5489C31.9665 24.5668 32.0331 24.5668 32.0928 24.5489L34.9998 23.6774L35.5363 23.516C35.3353 23.357 35.1845 23.5546 35.0908 23.6249C35.0908 23.5254 34.997 23.6952 35.0908 23.6249L35.4661 23.5351C35.4661 23.4356 35.4516 23.5864 35.3578 23.516C35.264 23.4457 35.5987 23.5351 35.4661 23.5351L35.8428 23.4239C35.888 23.4103 35.9269 23.387 35.9548 23.357C35.9826 23.327 35.9981 23.2916 35.9995 23.255C36.0008 23.2185 35.9878 23.1825 35.9622 23.1514C35.9366 23.1203 35.8994 23.0955 35.8553 23.08L32.1053 21.7675Z" fill="#393939"/>
<path d="M30.0881 24.387C30.0559 24.3779 30.0215 24.3739 29.9872 24.3752C29.9528 24.3765 29.9192 24.3832 29.8884 24.3947C29.8576 24.4062 29.8303 24.4223 29.8082 24.4421C29.7862 24.4619 29.7697 24.4849 29.7601 24.5096L29.5101 25.1471C29.4925 25.1919 29.4979 25.2399 29.5251 25.2819C29.5523 25.3238 29.5993 25.3567 29.6571 25.374L31.9071 26.049C31.9667 26.0669 32.0334 26.0669 32.0931 26.049L34.3431 25.374C34.4008 25.3567 34.4478 25.3238 34.475 25.2819C34.5022 25.2399 34.5076 25.1919 34.4901 25.1471L34.2401 24.5096C34.2304 24.4849 34.214 24.4619 34.1919 24.4421C34.1698 24.4223 34.1425 24.4062 34.1117 24.3947C34.0809 24.3832 34.0473 24.3765 34.013 24.3752C33.9786 24.3739 33.9442 24.3779 33.9121 24.387L32.0001 24.9248L30.0881 24.387Z" fill="#393939"/>
</g>
<defs>
<clipPath id="clip0_21_3">
<rect width="8" height="6" fill="white" transform="translate(28 21)"/>
</clipPath>
</defs>
</svg>
